<svg width="244" height="244" viewBox="0 0 244 244" fill="none" xmlns="http://www.w3.org/2000/svg">
<path fill-rule="evenodd" clip-rule="evenodd" d="M50.5527 220.363C54.957 223.563 59.4763 225.149 64.0342 225.17C66.0185 225.18 67.9569 224.892 69.8438 224.352C70.5158 226.196 71.4242 227.933 72.5983 229.534C75.2948 233.208 79.234 235.933 84.4117 237.615C89.5893 239.298 94.378 239.409 98.7195 238.021C100.609 237.416 102.364 236.544 103.991 235.447C105.2 236.994 106.601 238.365 108.212 239.524C111.912 242.186 116.501 243.559 121.945 243.559C127.389 243.559 131.977 242.186 135.677 239.524C137.288 238.365 138.687 236.992 139.896 235.446C141.524 236.543 143.28 237.415 145.17 238.02C149.512 239.408 154.3 239.297 159.478 237.615C164.655 235.933 168.594 233.208 171.291 229.534C172.465 227.933 173.372 226.195 174.044 224.35C175.931 224.891 177.87 225.179 179.855 225.17C184.413 225.148 188.932 223.562 193.336 220.362C197.74 217.162 200.646 213.354 202.075 209.026C202.697 207.142 203.021 205.209 203.09 203.248C205.053 203.179 206.986 202.853 208.871 202.23C213.199 200.802 217.007 197.897 220.207 193.493C223.407 189.088 224.993 184.569 225.014 180.011C225.023 178.026 224.736 176.087 224.196 174.199C226.04 173.527 227.778 172.62 229.378 171.446C233.053 168.75 235.777 164.81 237.459 159.632C239.141 154.455 239.252 149.667 237.865 145.326C237.26 143.435 236.387 141.68 235.29 140.052C236.836 138.843 238.21 137.443 239.369 135.832C242.03 132.132 243.403 127.544 243.403 122.1C243.403 116.656 242.03 112.068 239.368 108.368C238.209 106.757 236.836 105.358 235.29 104.149C236.387 102.521 237.26 100.766 237.865 98.8754C239.253 94.5339 239.141 89.7451 237.459 84.5675C235.777 79.39 233.052 75.451 229.377 72.7546C227.777 71.5803 226.039 70.6736 224.194 70.0015C224.735 68.1141 225.023 66.1747 225.014 64.1898C224.992 59.6321 223.407 55.113 220.207 50.7089C217.007 46.3046 213.199 43.3993 208.871 41.9704C206.986 41.3481 205.052 41.0227 203.09 40.9536C203.021 38.992 202.696 37.059 202.074 35.1746C200.645 30.8464 197.741 27.0383 193.336 23.8383C188.932 20.6385 184.413 19.0526 179.855 19.0311C177.87 19.0218 175.931 19.3097 174.044 19.8501C173.372 18.0056 172.465 16.2673 171.291 14.6671C168.595 10.9923 164.655 8.26828 159.477 6.58594C154.3 4.9038 149.512 4.79251 145.171 6.18044C143.28 6.785 141.524 7.65788 139.896 8.75535C138.687 7.20884 137.288 5.8362 135.677 4.67714C131.977 2.0154 127.389 0.641711 121.945 0.6416C116.501 0.6416 111.912 2.01473 108.212 4.67633C106.601 5.83545 105.201 7.20791 103.992 8.75455C102.364 7.65755 100.609 6.78441 98.7184 6.18002C94.3771 4.79204 89.5892 4.90338 84.4118 6.58555C79.2343 8.26782 75.2954 10.9923 72.5989 14.667C71.4246 16.2675 70.5166 18.0055 69.8445 19.8504C67.9573 19.31 66.0187 19.0212 64.0341 19.0305C59.4761 19.0519 54.957 20.638 50.5526 23.8379C46.1483 27.0379 43.243 30.846 41.8142 35.1742C41.192 37.0588 40.8663 38.9918 40.7971 40.9536C38.8354 41.0229 36.9028 41.3489 35.0183 41.971C30.69 43.3998 26.8821 46.3046 23.6821 50.7089C20.4823 55.1132 18.8963 59.6326 18.8749 64.1905C18.8656 66.1749 19.1527 68.1138 19.6931 70.0008C17.8489 70.6728 16.1113 71.5794 14.5114 72.7532C10.8365 75.4497 8.11263 79.3895 6.43027 84.5671C4.74796 89.7447 4.63611 94.5328 6.02419 98.8743C6.62856 100.765 7.50112 102.52 8.5981 104.147C7.05156 105.356 5.67917 106.757 4.5201 108.368C1.85843 112.068 0.485399 116.656 0.485353 122.1C0.48541 127.544 1.85903 132.132 4.52066 135.832C5.67965 137.443 7.05165 138.843 8.59809 140.052C7.50095 141.68 6.62878 143.436 6.02434 145.326C4.63626 149.668 4.74835 154.456 6.43067 159.633C8.11302 164.811 10.8366 168.75 14.5115 171.447C16.1116 172.621 17.8491 173.528 19.6934 174.2C19.153 176.087 18.865 178.026 18.8743 180.011C18.8958 184.569 20.4818 189.088 23.6817 193.493C26.8816 197.897 30.6903 200.801 35.0186 202.23C36.9031 202.852 38.8357 203.179 40.7974 203.248C40.8666 205.21 41.1926 207.142 41.8147 209.027C43.2436 213.355 46.1483 217.163 50.5527 220.363ZM167.449 59.4026C172.686 47.9831 176.078 36.7785 175.538 27.4361C175.505 26.8558 175.456 26.2806 175.391 25.7116C176.884 25.2535 178.361 25.0246 179.826 25.0315C182.928 25.046 186.249 26.1052 189.81 28.6924C193.37 31.2796 195.404 34.1108 196.376 37.0558C196.835 38.4467 197.074 39.9224 197.099 41.4836C196.538 41.5978 195.977 41.7296 195.414 41.877C186.362 44.2508 176.754 50.9395 167.512 59.4494C167.462 59.4949 167.413 59.5411 167.364 59.5868C167.392 59.5254 167.421 59.464 167.449 59.4026ZM145.847 48.4106C147.299 35.9314 147.062 24.2261 143.662 15.5075C143.451 14.9659 143.226 14.4345 142.988 13.9133C144.267 13.0158 145.602 12.3417 146.997 11.8954C149.952 10.9508 153.437 10.9321 157.624 12.2923C161.81 13.6525 164.619 15.7168 166.453 18.2173C167.32 19.3986 168.002 20.7288 168.509 22.2061C168.011 22.488 167.517 22.7861 167.028 23.1C159.153 28.1547 152.082 37.4851 145.921 48.4345C145.888 48.4932 145.855 48.5521 145.822 48.611C145.83 48.5441 145.839 48.4774 145.847 48.4106ZM184.596 76.5334C193.106 67.291 199.794 57.6828 202.168 48.6307C202.316 48.0685 202.446 47.5064 202.56 46.9453C204.122 46.9708 205.598 47.2092 206.989 47.6686C209.935 48.6408 212.766 50.6741 215.353 54.2351C217.94 57.7961 219 61.1172 219.014 64.2186C219.021 65.6838 218.792 67.1615 218.333 68.6548C217.764 68.59 217.19 68.5405 216.609 68.5069C207.267 67.9672 196.061 71.3594 184.642 76.5967C184.58 76.6248 184.519 76.6535 184.458 76.6818C184.504 76.6321 184.55 76.583 184.596 76.5334ZM133.805 98.8236C136.821 89.7522 139.653 80.0642 141.889 70.4584C144.753 63.7166 147.852 57.2382 151.15 51.3761C156.963 41.043 163.206 32.9721 169.582 28.606C169.798 36.3308 166.937 46.1247 161.995 56.9016C159.19 63.0166 155.77 69.3325 151.997 75.6125C145.541 83.0669 139.37 91.0525 133.805 98.8236ZM140.417 103.628C146.089 95.9315 151.778 87.5931 156.873 79.1477C161.679 73.6212 166.628 68.4183 171.576 63.8626C180.297 55.8321 188.728 50.0857 196.141 47.9032C193.959 55.3165 188.213 63.7473 180.182 72.4692C175.625 77.4188 170.419 82.3691 164.89 87.1765C156.447 92.2707 148.11 97.957 140.417 103.628ZM121.906 44.6301C119.431 32.3131 115.589 21.2543 109.661 14.0132C109.293 13.5633 108.914 13.1275 108.527 12.7051C109.465 11.4567 110.527 10.4038 111.716 9.54811C114.234 7.73692 117.543 6.64173 121.944 6.64171C126.346 6.64176 129.655 7.73672 132.173 9.54789C133.362 10.4035 134.423 11.4573 135.361 12.7057C134.975 13.1278 134.597 13.5639 134.229 14.0135C128.301 21.2545 124.459 32.3132 121.984 44.6303C121.971 44.6965 121.958 44.7632 121.944 44.8295C121.931 44.7631 121.919 44.6964 121.906 44.6301ZM195.61 98.1241C206.56 91.9638 215.891 84.8922 220.945 77.0167C221.259 76.5277 221.557 76.0338 221.839 75.5356C223.317 76.0425 224.646 76.7253 225.828 77.5921C228.328 79.4268 230.392 82.2358 231.753 86.4221C233.113 90.6082 233.094 94.0937 232.149 97.0477C231.703 98.4429 231.029 99.777 230.132 101.055C229.611 100.818 229.079 100.593 228.538 100.382C219.819 96.9818 208.114 96.7451 195.635 98.1972C195.568 98.2049 195.502 98.2131 195.436 98.2209C195.494 98.1884 195.553 98.1566 195.61 98.1241ZM126.031 96.2962C126.096 86.7363 125.797 76.6466 124.955 66.8195C125.595 59.5241 126.54 52.4064 127.865 45.813C130.201 34.1895 133.644 24.584 138.358 18.4611C140.95 25.7412 141.258 35.9397 139.887 47.7164C139.109 54.3999 137.807 61.4648 136.159 68.6043C132.324 77.6873 128.922 87.1872 126.031 96.2962ZM145.226 110.237C152.997 104.672 160.981 98.5009 168.435 92.0453C174.714 88.2739 181.029 84.8537 187.143 82.0496C197.919 77.1072 207.714 74.2477 215.439 74.4631C211.072 80.839 203.001 87.0808 192.669 92.8941C186.807 96.192 180.329 99.2905 173.588 102.153C163.983 104.389 154.297 107.222 145.226 110.237ZM97.9676 48.4334C91.8074 37.4841 84.7359 28.1545 76.8605 23.0998C76.3712 22.7857 75.8771 22.4874 75.3785 22.2053C75.8855 20.728 76.5696 19.398 77.4364 18.2166C79.2711 15.7163 82.0798 13.6528 86.2658 12.2926C90.452 10.9325 93.938 10.9508 96.8921 11.8953C98.2875 12.3416 99.6213 13.0166 100.9 13.9138C100.662 14.4348 100.438 14.9668 100.227 15.5082C96.8265 24.2267 96.5902 35.9314 98.0423 48.4104C98.0501 48.4772 98.0578 48.544 98.0656 48.6108C98.0327 48.552 98.0007 48.4921 97.9676 48.4334ZM199.414 122.061C211.731 119.586 222.79 115.745 230.031 109.817C230.481 109.449 230.917 109.07 231.339 108.683C232.587 109.622 233.641 110.682 234.497 111.871C236.308 114.389 237.403 117.699 237.403 122.101C237.403 126.502 236.308 129.811 234.497 132.329C233.641 133.518 232.587 134.578 231.339 135.517C230.917 135.13 230.481 134.752 230.031 134.384C222.79 128.456 211.731 124.614 199.414 122.138C199.349 122.125 199.284 122.113 199.218 122.1C199.284 122.087 199.349 122.075 199.414 122.061ZM147.749 118.013C156.86 115.121 166.363 111.719 175.448 107.882C182.585 106.236 189.647 104.935 196.328 104.157C208.105 102.787 218.304 103.093 225.584 105.685C219.461 110.4 209.856 113.843 198.232 116.179C191.639 117.504 184.522 118.449 177.227 119.088C167.4 118.246 157.31 117.948 147.749 118.013ZM117.857 96.2989C114.965 87.1855 111.562 77.6807 107.724 68.5936C106.078 61.4579 104.778 54.3968 104.001 47.7169C102.631 35.9404 102.937 25.7414 105.529 18.4612C110.244 24.5841 113.687 34.1884 116.023 45.8121C117.349 52.4077 118.292 59.5283 118.932 66.8262C118.09 76.652 117.792 86.7403 117.857 96.2989ZM110.083 98.8228C104.517 91.0512 98.3456 83.0652 91.8891 75.6104C88.1175 69.3311 84.6981 63.0159 81.8939 56.9016C76.9515 46.1249 74.0907 36.3308 74.3061 28.606C80.6822 32.9722 86.9249 41.0428 92.7384 51.3758C96.0369 57.2385 99.135 63.718 101.998 70.4605C104.234 80.0654 107.067 89.7522 110.083 98.8228ZM147.749 126.187C157.308 126.253 167.398 125.954 177.224 125.112C184.52 125.751 191.638 126.696 198.232 128.022C209.856 130.357 219.461 133.8 225.584 138.515C218.304 141.107 208.105 141.413 196.328 140.043C189.646 139.265 182.583 137.964 175.445 136.318C166.361 132.481 156.859 129.079 147.749 126.187ZM46.7881 41.4834C46.8137 39.9222 47.0532 38.4467 47.5123 37.0557C48.4845 34.1107 50.518 31.2794 54.0789 28.6922C57.6398 26.1051 60.961 25.0456 64.0623 25.031C65.5273 25.0242 67.0048 25.2532 68.4978 25.7114C68.433 26.2804 68.3842 26.8554 68.3507 27.4357C67.811 36.7782 71.2037 47.983 76.4411 59.4027C76.4694 59.4644 76.4979 59.526 76.5263 59.5877C76.4764 59.5417 76.427 59.4951 76.3771 59.4492C67.1348 50.9394 57.5265 44.2508 48.4745 41.877C47.9119 41.7295 47.3496 41.5977 46.7881 41.4834ZM221.839 168.665C221.557 168.167 221.259 167.673 220.945 167.184C215.89 159.309 206.56 152.238 195.611 146.077C195.551 146.044 195.492 146.011 195.432 145.978C195.5 145.986 195.568 145.994 195.635 146.002C208.114 147.454 219.818 147.218 228.537 143.818C229.078 143.607 229.61 143.382 230.131 143.145C231.028 144.423 231.703 145.757 232.15 147.152C233.094 150.106 233.113 153.592 231.753 157.779C230.392 161.965 228.328 164.773 225.828 166.608C224.646 167.475 223.316 168.159 221.839 168.665ZM78.9859 87.168C73.4613 82.3636 68.2606 77.4158 63.7063 72.4696C55.6753 63.7473 49.928 55.3157 47.746 47.9022C55.1595 50.0844 63.5906 55.8322 72.313 63.8633C77.2622 68.4203 82.2116 73.6256 87.0187 79.1539C92.1126 87.5965 97.7992 95.9326 103.469 103.626C95.7724 97.9533 87.4324 92.2637 78.9859 87.168ZM168.437 152.157C160.982 145.7 152.995 139.528 145.223 133.962C154.292 136.977 163.977 139.809 173.58 142.045C180.324 144.908 186.805 148.008 192.668 151.307C203.001 157.12 211.071 163.362 215.438 169.737C207.713 169.953 197.919 167.093 187.143 162.15C181.029 159.346 174.715 155.927 168.437 152.157ZM202.56 197.257C202.445 196.695 202.315 196.132 202.168 195.569C199.794 186.517 193.106 176.909 184.596 167.667C184.551 167.617 184.504 167.568 184.458 167.518C184.519 167.547 184.58 167.575 184.642 167.603C196.061 172.841 207.266 176.233 216.609 175.693C217.189 175.66 217.764 175.611 218.333 175.546C218.792 177.039 219.021 178.517 219.014 179.983C218.999 183.084 217.94 186.405 215.353 189.966C212.766 193.527 209.934 195.56 206.989 196.533C205.598 196.992 204.122 197.231 202.56 197.257ZM25.5545 68.6536C25.0965 67.1609 24.8684 65.6837 24.8752 64.2189C24.8898 61.1175 25.9491 57.7966 28.5362 54.2356C31.1234 50.6747 33.9545 48.6411 36.8996 47.6688C38.2905 47.2097 39.7659 46.9702 41.3272 46.9445C41.4414 47.5058 41.5733 48.0683 41.7208 48.6307C44.0946 57.6826 50.7826 67.2908 59.2923 76.533C59.3374 76.582 59.3829 76.631 59.4282 76.68C59.3676 76.6521 59.3075 76.6231 59.247 76.5954C47.8275 71.3582 36.6228 67.9666 27.2804 68.5061C26.6998 68.5397 26.1239 68.5888 25.5545 68.6536ZM196.141 196.298C188.728 194.116 180.297 188.369 171.575 180.339C166.628 175.784 161.68 170.581 156.875 165.056C151.779 156.609 146.09 148.269 140.417 140.572C148.111 146.243 156.448 151.931 164.892 157.025C170.42 161.832 175.625 166.782 180.182 171.731C188.213 180.453 193.959 188.885 196.141 196.298ZM51.2199 92.8955C40.8865 87.0818 32.8151 80.8387 28.4489 74.4623C36.1739 74.2467 45.9686 77.1071 56.7459 82.0498C62.8606 84.8542 69.1758 88.2752 75.4555 92.0472C82.9093 98.5028 90.8944 104.674 98.665 110.239C89.592 107.222 79.9026 104.388 70.2952 102.152C63.556 99.2897 57.08 96.1925 51.2199 92.8955ZM18.3038 105.685C25.5841 103.093 35.7836 102.787 47.5607 104.157C54.2421 104.935 61.3047 106.236 68.442 107.883C77.5276 111.72 87.0304 115.122 96.1422 118.014C86.5829 117.949 76.4939 118.247 66.6674 119.089C59.3704 118.45 52.2507 117.505 45.6559 116.179C34.0317 113.843 24.4266 110.4 18.3038 105.685ZM169.582 215.595C163.206 211.229 156.964 203.157 151.15 192.824C147.852 186.962 144.752 180.483 141.889 173.741C139.653 164.135 136.82 154.448 133.804 145.377C139.37 153.149 145.541 161.136 151.998 168.591C155.769 174.87 159.191 181.184 161.995 187.298C166.937 198.075 169.797 207.87 169.582 215.595ZM18.3048 138.515C24.4277 133.8 34.0326 130.357 45.6564 128.021C52.2496 126.696 59.3668 125.751 66.6619 125.111C76.49 125.953 86.5809 126.253 96.1418 126.187C87.0296 129.08 77.526 132.482 68.4399 136.319C61.3033 137.965 54.2412 139.265 47.5604 140.043C35.7836 141.413 25.585 141.107 18.3048 138.515ZM138.359 225.74C133.644 219.617 130.202 210.012 127.866 198.388C126.541 191.794 125.595 184.676 124.955 177.38C125.797 167.553 126.096 157.464 126.031 147.904C128.922 157.014 132.324 166.515 136.16 175.599C137.807 182.738 139.11 189.801 139.887 196.484C141.258 208.261 140.951 218.459 138.359 225.74ZM13.756 101.055C12.8591 99.777 12.1858 98.4423 11.7397 97.0469C10.7952 94.0928 10.7764 90.607 12.1366 86.4207C13.4968 82.2348 15.5612 79.4258 18.0616 77.5911C19.2425 76.7248 20.5716 76.0417 22.0483 75.5348C22.3304 76.0335 22.6296 76.5277 22.9437 77.0171C27.9986 84.8925 37.3289 91.9637 48.2782 98.124C48.3365 98.1567 48.3948 98.1894 48.4532 98.2221C48.3866 98.2143 48.32 98.2055 48.2536 98.1978C35.7746 96.7457 24.0703 96.9822 15.3519 100.382C14.81 100.594 14.2775 100.818 13.756 101.055ZM175.39 218.489C175.455 217.92 175.505 217.345 175.539 216.765C176.079 207.422 172.686 196.218 167.448 184.798C167.42 184.737 167.39 184.676 167.362 184.614C167.412 184.66 167.462 184.706 167.512 184.752C176.754 193.262 186.362 199.951 195.414 202.324C195.976 202.472 196.538 202.603 197.099 202.717C197.074 204.278 196.835 205.753 196.376 207.144C195.404 210.089 193.371 212.921 189.81 215.508C186.249 218.095 182.928 219.154 179.826 219.169C178.361 219.176 176.884 218.948 175.39 218.489ZM28.4489 169.739C32.8151 163.362 40.8868 157.12 51.2201 151.306C57.0815 148.008 63.5586 144.91 70.2993 142.047C79.9063 139.811 89.5952 136.977 98.6677 133.96C90.8972 139.525 82.9124 145.696 75.4584 152.152C69.1778 155.925 62.8616 159.346 56.746 162.15C45.9687 167.093 36.1739 169.954 28.4489 169.739ZM105.529 225.741C102.937 218.46 102.631 208.261 104.001 196.484C104.778 189.805 106.078 182.744 107.724 175.609C111.562 166.521 114.964 157.017 117.857 147.903C117.792 157.461 118.091 167.549 118.932 177.374C118.293 184.672 117.348 191.792 116.023 198.388C113.687 210.012 110.244 219.618 105.529 225.741ZM47.7452 196.299C49.9272 188.885 55.6752 180.454 63.7063 171.732C68.2622 166.784 73.4656 161.835 78.9924 157.029C87.4374 151.934 95.7759 146.245 103.472 140.573C97.8006 148.268 92.1129 156.605 87.0185 165.048C82.2115 170.577 77.2616 175.781 72.3126 180.338C63.59 188.37 55.1588 194.117 47.7452 196.299ZM74.3061 215.596C74.0903 207.871 76.9509 198.077 81.8936 187.299C84.6973 181.186 88.1164 174.871 91.8873 168.593C98.3448 161.137 104.517 153.15 110.084 145.377C107.068 154.447 104.235 164.134 101.999 173.738C99.1359 180.481 96.0373 186.961 92.7385 192.825C86.9247 203.158 80.6825 211.23 74.3061 215.596ZM12.5494 135.518C11.3009 134.579 10.2468 133.518 9.39108 132.328C7.57999 129.811 6.48525 126.501 6.48525 122.1C6.48538 117.698 7.58071 114.39 9.39164 111.872C10.2472 110.683 11.3005 109.622 12.5487 108.683C12.971 109.07 13.408 109.447 13.8578 109.815C21.0988 115.743 32.157 119.586 44.474 122.061C44.5407 122.074 44.6079 122.087 44.6746 122.101C44.608 122.114 44.5412 122.127 44.4746 122.14C32.1575 124.615 21.0988 128.457 13.8578 134.385C13.408 134.753 12.9717 135.131 12.5494 135.518ZM142.988 230.287C143.226 229.766 143.451 229.235 143.662 228.693C147.063 219.975 147.299 208.27 145.847 195.791C145.839 195.723 145.829 195.656 145.821 195.588C145.855 195.647 145.888 195.707 145.922 195.766C152.082 206.715 159.153 216.046 167.028 221.1C167.518 221.414 168.011 221.713 168.51 221.996C168.003 223.472 167.32 224.802 166.454 225.983C164.619 228.484 161.81 230.548 157.624 231.908C153.437 233.268 149.952 233.25 146.997 232.305C145.602 231.859 144.267 231.184 142.988 230.287ZM18.0612 166.609C15.5607 164.775 13.4966 161.965 12.1364 157.779C10.7762 153.593 10.7954 150.108 11.7399 147.154C12.1861 145.758 12.8597 144.423 13.7568 143.145C14.2779 143.382 14.8096 143.607 15.3512 143.818C24.0696 147.218 35.7743 147.454 48.2533 146.002C48.3206 145.994 48.3884 145.986 48.4557 145.978C48.3966 146.011 48.3375 146.044 48.2785 146.077C37.3291 152.238 27.9983 159.309 22.9435 167.185C22.6297 167.674 22.3308 168.167 22.0489 168.665C20.5719 168.158 19.2422 167.476 18.0612 166.609ZM111.716 234.654C110.527 233.798 109.466 232.745 108.527 231.497C108.914 231.074 109.292 230.637 109.661 230.187C115.588 222.946 119.43 211.887 121.905 199.57C121.919 199.504 121.931 199.438 121.944 199.371C121.957 199.438 121.97 199.504 121.984 199.571C124.459 211.888 128.3 222.946 134.228 230.187C134.597 230.637 134.974 231.074 135.361 231.496C134.423 232.744 133.362 233.798 132.173 234.653C129.655 236.464 126.346 237.56 121.945 237.56C117.543 237.56 114.234 236.465 111.716 234.654ZM36.8995 196.533C33.9544 195.561 31.1237 193.526 28.5365 189.966C25.9492 186.404 24.8899 183.084 24.8753 179.982C24.8685 178.517 25.0962 177.04 25.5544 175.547C26.1236 175.612 26.6989 175.661 27.2794 175.694C36.622 176.234 47.8275 172.842 59.2472 167.605C59.3081 167.577 59.3686 167.548 59.4296 167.52C59.3839 167.569 59.3384 167.619 59.2929 167.668C50.783 176.91 44.0945 186.519 41.7208 195.571C41.5733 196.133 41.442 196.695 41.3278 197.256C39.7663 197.231 38.2906 196.992 36.8995 196.533ZM86.2659 231.908C82.0796 230.548 79.2704 228.485 77.4356 225.984C76.5688 224.803 75.8853 223.473 75.3784 221.996C75.877 221.713 76.3715 221.416 76.8609 221.101C84.7364 216.047 91.8074 206.716 97.9677 195.767C98.0007 195.708 98.0327 195.649 98.0656 195.591C98.0578 195.657 98.0499 195.724 98.0421 195.791C96.59 208.27 96.8258 219.975 100.226 228.693C100.437 229.235 100.662 229.767 100.9 230.288C99.6214 231.185 98.2872 231.859 96.892 232.305C93.938 233.25 90.4521 233.268 86.2659 231.908ZM54.0794 215.509C50.5183 212.922 48.4849 210.091 47.5126 207.146C47.0534 205.755 46.814 204.279 46.7883 202.718C47.3497 202.604 47.9119 202.472 48.4745 202.324C57.5265 199.951 67.1349 193.262 76.3773 184.752C76.4268 184.706 76.4759 184.66 76.5254 184.615C76.4973 184.676 76.4686 184.737 76.4405 184.798C71.2032 196.218 67.811 207.423 68.3507 216.765C68.3842 217.346 68.4332 217.921 68.498 218.49C67.005 218.948 65.5276 219.177 64.0627 219.17C60.9613 219.155 57.6404 218.096 54.0794 215.509Z" fill="black"/>
</svg>
