<svg width="238" height="51" viewBox="0 0 238 51" fill="none" xmlns="http://www.w3.org/2000/svg">
<path d="M57.0703 45.4824C57.0703 48.1025 54.9463 50.2266 52.3262 50.2266V50.2266C49.7061 50.2266 47.582 48.1025 47.582 45.4824V4.74414C47.582 2.12402 49.7061 0 52.3262 0V0C54.9463 0 57.0703 2.12402 57.0703 4.74414V45.4824ZM41.3037 37.1113C41.3037 39.7314 39.1797 41.8555 36.5596 41.8555V41.8555C33.9395 41.8555 31.8154 39.7314 31.8154 37.1113V35.8911C31.8154 32.5971 29.1451 29.9268 25.8511 29.9268H17.6533C14.9949 29.9268 12.8398 27.7717 12.8398 25.1133V25.1133C12.8398 22.4549 14.9949 20.2998 17.6533 20.2998H25.8511C29.1451 20.2998 31.8154 17.6295 31.8154 14.3354V13.1152C31.8154 10.4951 33.9395 8.37109 36.5596 8.37109V8.37109C39.1797 8.37109 41.3037 10.4951 41.3037 13.1152V37.1113ZM72.8369 37.1113C72.8369 39.7314 70.7129 41.8555 68.0928 41.8555V41.8555C65.4727 41.8555 63.3486 39.7314 63.3486 37.1113V13.1152C63.3486 10.4951 65.4727 8.37109 68.0928 8.37109V8.37109C70.7129 8.37109 72.8369 10.4951 72.8369 13.1152V37.1113ZM83.8594 20.2998C86.4795 20.2998 88.6035 22.4238 88.6035 25.0439V25.1826C88.6035 27.8027 86.4795 29.9268 83.8594 29.9268V29.9268C81.2393 29.9268 79.1152 27.8027 79.1152 25.1826V25.0439C79.1152 22.4238 81.2393 20.2998 83.8594 20.2998V20.2998Z" fill="#997ABC"/>
<path d="M105.225 34.1133H101.658L108.288 15.7053H111.779L118.384 34.1133H114.768L113.336 29.9445H106.681L105.225 34.1133ZM109.594 21.632L107.686 27.0565H112.332L110.423 21.632C110.339 21.3642 110.256 21.0963 110.172 20.8284C110.088 20.5438 110.029 20.3094 109.996 20.1253C109.979 20.3094 109.929 20.5438 109.845 20.8284C109.762 21.0963 109.678 21.3642 109.594 21.632ZM123.726 34.4398C122.403 34.4398 121.357 34.0882 120.586 33.385C119.833 32.6651 119.456 31.7192 119.456 30.5472C119.456 29.392 119.85 28.4796 120.637 27.8099C121.44 27.1235 122.587 26.7216 124.077 26.6044L127.719 26.3031V26.052C127.719 25.5162 127.618 25.0893 127.417 24.7712C127.216 24.4363 126.932 24.1936 126.563 24.0429C126.212 23.8922 125.785 23.8169 125.283 23.8169C124.395 23.8169 123.717 23.9927 123.248 24.3443C122.78 24.6791 122.545 25.1646 122.545 25.8008H119.783C119.783 24.88 120.017 24.0848 120.486 23.4151C120.955 22.7454 121.616 22.2264 122.47 21.8581C123.324 21.473 124.312 21.2805 125.433 21.2805C126.589 21.2805 127.568 21.4897 128.372 21.9083C129.192 22.3101 129.82 22.9044 130.255 23.6913C130.69 24.4782 130.908 25.4576 130.908 26.6296V34.1133H128.045L127.819 32.3302C127.568 32.9497 127.057 33.4603 126.287 33.8621C125.534 34.2472 124.68 34.4398 123.726 34.4398ZM124.806 31.9787C125.693 31.9787 126.404 31.7359 126.94 31.2504C127.476 30.7649 127.744 30.0784 127.744 29.1911V28.513L125.333 28.714C124.395 28.7977 123.734 28.9818 123.349 29.2664C122.964 29.5343 122.771 29.911 122.771 30.3965C122.771 30.9323 122.947 31.3341 123.299 31.602C123.65 31.8531 124.153 31.9787 124.806 31.9787ZM141.851 21.632V24.6707H140.696C139.591 24.6707 138.72 24.9637 138.084 25.5497C137.448 26.1189 137.13 27.0146 137.13 28.2368V34.1133H133.865V21.6823H136.929L137.205 24.294H136.904C137.071 23.4737 137.456 22.7956 138.059 22.2599C138.662 21.7241 139.466 21.4563 140.47 21.4563C140.688 21.4563 140.905 21.473 141.123 21.5065C141.357 21.5232 141.6 21.5651 141.851 21.632ZM142.8 27.8601C142.8 26.571 143.084 25.4325 143.654 24.4447C144.239 23.4569 145.035 22.6868 146.039 22.1343C147.061 21.5818 148.216 21.3056 149.505 21.3056C150.811 21.3056 151.966 21.5818 152.97 22.1343C153.975 22.6868 154.762 23.4569 155.331 24.4447C155.917 25.4325 156.21 26.571 156.21 27.8601C156.21 29.166 155.917 30.3128 155.331 31.3006C154.762 32.2716 153.975 33.0334 152.97 33.5859C151.966 34.1384 150.811 34.4146 149.505 34.4146C148.216 34.4146 147.061 34.1384 146.039 33.5859C145.035 33.0334 144.239 32.2716 143.654 31.3006C143.084 30.3128 142.8 29.166 142.8 27.8601ZM146.089 27.8601C146.089 28.58 146.232 29.2162 146.516 29.7687C146.818 30.3045 147.22 30.7314 147.722 31.0495C148.241 31.3508 148.835 31.5015 149.505 31.5015C150.191 31.5015 150.786 31.3508 151.288 31.0495C151.807 30.7314 152.209 30.3045 152.493 29.7687C152.778 29.2162 152.92 28.58 152.92 27.8601C152.92 27.1235 152.778 26.4873 152.493 25.9515C152.209 25.4158 151.807 24.9972 151.288 24.6958C150.786 24.3945 150.191 24.2438 149.505 24.2438C148.835 24.2438 148.241 24.3945 147.722 24.6958C147.22 24.9972 146.818 25.4158 146.516 25.9515C146.232 26.4873 146.089 27.1235 146.089 27.8601Z" fill="#715096"/>
<path d="M162.227 34.1133H159.063V15.7556H162.253L171.796 30.1956H170.866V15.7556H174.031V34.1133H170.866L161.298 19.6983H162.227V34.1133ZM176.914 27.8852C176.914 26.5961 177.199 25.466 177.768 24.4949C178.337 23.5072 179.124 22.737 180.128 22.1845C181.133 21.632 182.271 21.3558 183.544 21.3558C184.833 21.3558 185.971 21.632 186.959 22.1845C187.964 22.737 188.751 23.5072 189.32 24.4949C189.889 25.466 190.174 26.5961 190.174 27.8852C190.174 29.1744 189.889 30.3128 189.32 31.3006C188.751 32.2716 187.964 33.0334 186.959 33.5859C185.971 34.1384 184.833 34.4146 183.544 34.4146C182.271 34.4146 181.133 34.1384 180.128 33.5859C179.124 33.0334 178.337 32.2716 177.768 31.3006C177.199 30.3128 176.914 29.1744 176.914 27.8852ZM179.978 27.8852C179.978 28.6386 180.128 29.2999 180.43 29.8692C180.748 30.4384 181.166 30.8821 181.685 31.2002C182.221 31.5183 182.841 31.6773 183.544 31.6773C184.247 31.6773 184.866 31.5183 185.402 31.2002C185.938 30.8821 186.356 30.4384 186.658 29.8692C186.959 29.2999 187.11 28.6386 187.11 27.8852C187.11 27.1151 186.959 26.4538 186.658 25.9013C186.356 25.332 185.938 24.8884 185.402 24.5703C184.866 24.2522 184.247 24.0931 183.544 24.0931C182.841 24.0931 182.221 24.2522 181.685 24.5703C181.166 24.8884 180.748 25.332 180.43 25.9013C180.128 26.4538 179.978 27.1151 179.978 27.8852ZM191.249 21.7074H199.084V24.2689H191.249V21.7074ZM196.699 34.1133H193.635V17.84H196.699V34.1133ZM206.442 34.4398C205.219 34.4398 204.131 34.1635 203.177 33.611C202.239 33.0418 201.503 32.2716 200.967 31.3006C200.431 30.3128 200.163 29.1827 200.163 27.9103C200.163 26.6212 200.423 25.4827 200.942 24.4949C201.461 23.5072 202.189 22.737 203.127 22.1845C204.064 21.6153 205.136 21.3307 206.341 21.3307C207.597 21.3307 208.677 21.5986 209.581 22.1343C210.485 22.6533 211.18 23.3816 211.665 24.3192C212.167 25.2567 212.418 26.3784 212.418 27.6843V28.6135L201.77 28.6386L201.821 26.6798H209.38C209.38 25.8259 209.103 25.1395 208.551 24.6205C208.015 24.1015 207.287 23.842 206.366 23.842C205.646 23.842 205.035 23.9927 204.533 24.294C204.047 24.5954 203.679 25.0474 203.428 25.6501C203.177 26.2529 203.051 26.9895 203.051 27.8601C203.051 29.1995 203.336 30.2124 203.905 30.8988C204.491 31.5852 205.353 31.9284 206.492 31.9284C207.329 31.9284 208.015 31.7694 208.551 31.4513C209.103 31.1332 209.463 30.6812 209.631 30.0952H212.469C212.201 31.4513 211.531 32.5144 210.46 33.2845C209.405 34.0547 208.065 34.4398 206.442 34.4398ZM213.916 30.3463H216.829C216.846 30.8821 217.047 31.309 217.432 31.6271C217.817 31.9452 218.353 32.1042 219.039 32.1042C219.776 32.1042 220.328 31.9703 220.697 31.7024C221.082 31.4345 221.274 31.0746 221.274 30.6226C221.274 30.3212 221.174 30.0533 220.973 29.8189C220.772 29.5845 220.395 29.4088 219.843 29.2916L217.608 28.7642C216.486 28.513 215.649 28.1112 215.097 27.5587C214.561 26.9895 214.293 26.211 214.293 25.2232C214.293 24.4196 214.502 23.7248 214.921 23.1388C215.356 22.5529 215.942 22.1092 216.679 21.8078C217.415 21.4897 218.261 21.3307 219.215 21.3307C220.136 21.3307 220.948 21.4981 221.651 21.8329C222.354 22.1678 222.898 22.6366 223.283 23.2393C223.685 23.842 223.894 24.5452 223.911 25.3488H220.998C220.998 24.813 220.831 24.3945 220.496 24.0931C220.161 23.775 219.692 23.616 219.089 23.616C218.487 23.616 218.018 23.7499 217.683 24.0178C217.348 24.2857 217.181 24.6456 217.181 25.0977C217.181 25.7841 217.717 26.2529 218.788 26.504L221.023 27.0314C222.061 27.2658 222.84 27.6425 223.359 28.1615C223.894 28.6805 224.162 29.4171 224.162 30.3714C224.162 31.2085 223.945 31.9368 223.509 32.5563C223.074 33.159 222.463 33.6278 221.676 33.9626C220.889 34.2807 219.985 34.4398 218.964 34.4398C217.424 34.4398 216.193 34.0631 215.272 33.3097C214.368 32.5563 213.916 31.5685 213.916 30.3463Z" fill="#4A4A4A"/>
</svg>
